<svg version="1" xmlns="http://www.w3.org/2000/svg" width="1365.333" height="1365.333" viewBox="0 0 1024.000000 1024.000000"><path d="M449.7 197.7c-.4.3-.7 3.7-.7 7.5v6.8h-28v13h-13.9l-.3 6.7-.3 6.8-6.7.3-6.8.3v26.8l-7.2.3-7.3.3-.3 13.2-.3 13.3H365v203h14v-13h15v-14h13v-13h28v13h28v14h13.8l.7 13.5.7 13.5H491l.2 20.7.3 20.8 7.4.3 7.4.3-.6 78.7c-.4 43.3-.7 79.7-.7 80.9 0 2.2-.4 2.3-7 2.3h-7v11.7l-9.7.6c-5.4.4-20.9.7-34.5.7h-24.7l-.4-6.7-.3-6.8-.2 6.7-.2 6.8h-14v41h-14v39.9l6.8.3 6.7.3.3 7.3.3 7.2 35.2-.2 35.2-.3.3-7.3.3-7.2H491v-11.9l7.3-.3 7.2-.3.3-27.3.2-27.2h-15v-14h15v-40h13v53.9l7.3.3 7.2.3.3 13.2.3 13.3H519l.2 33.7.3 33.8 7.3.3 7.2.3V850l34.8-.2 34.7-.3.3-6.7.3-6.7 6.7-.3 6.7-.3.3-6.2.3-6.2 6.7-.3 6.7-.3.3-13.7.3-13.8H618v-54h-42.7l-28.3.1V727h-13V552h13l.2-20.8.3-20.7 7.3-.3 7.2-.3V483h14v-13.9l13.8-.3 13.7-.3.3-6.3.3-6.2H631v13h15v14h13v27h15V293h-14v-27h-14v-27h-14v-13.9l-6.7-.3-6.8-.3-.3-6.3-.3-6.2h-27.8l-.3-7.3-.3-7.2-69.6-.3c-38.2-.1-69.9.1-70.2.5zM590 314v7h12.7l.6 19.2c.3 10.5.4 19.5.1 20-.3.4-6.6.8-14 .8H576v13h-14v-13h-13.9l-.3 13.2-.3 13.3-6.7.3-6.8.3v12.8l13.8.3 13.7.3.3 13.7.3 13.8H590v-28h14.3l-.6 9.7c-.4 5.4-.7 11.7-.7 14v4.3h-12.9l-.3 6.2-.3 6.3-13.7.3-13.8.3V456h-28v12h-29v-11.9l-13.7-.3-13.8-.3-.3-6.7-.3-6.7-13.7-.3-13.7-.3-.3-6.3-.3-6.2h-13.6l-.7-13c-.4-7.1-.4-13.4-.1-14 .3-.5 3.7-1 7.6-1h6.9v28h29v-28h27v-13h-14v-27h-13v13h-15v-13h-13v-13h28v-14l20.8-.2 20.7-.3.3-6.3.3-6.2H562v-14h28v7zM365.2 523.2l-.2 13.7-7.2.4-7.3.3 7.3.2c5.2.1 7.4-.2 7.8-1.1.2-.7.3-7.1.1-14.3l-.3-12.9-.2 13.7zM680.7 537.7l6.2.4.3 13.2.3 13.2 7.5.1 7.5.1-7.2-.4-7.3-.4V537l-6.7.2-6.8.2 6.2.3z"/><path d="M562 581.5V612h12.9l.3-10.3.3-10.2 10.8-.3 10.7-.3V579h13v-15h-13v-13h-35v30.5zm34-10.5v7h-21v-6.3c0-3.5.3-6.7.7-7 .3-.4 5.1-.7 10.5-.7h9.8v7zM337 604.5v13.4l-7.2.3-7.3.3v54l7.3.3 7.2.3V687h12.9l.3 6.2.3 6.3 28.3.3 28.2.2v-13h15v-69h-29v26.9l-7.2.3-7.3.3.2 20.2.3 20.3h-14v-13h-13.9l-.3-13.8-.3-13.7-6.2-.3-6.3-.3v-11.8l6.3-.3 6.2-.3.3-7.3.3-7.2h13.6l.7-9.2c.3-5 .6-11.1.6-13.5V591h-29v13.5zm69 48v6.5h-12v-13h12v6.5zM687.4 592.4c-.3.7-.4 4-.2 7.2l.3 5.9 7.3.3 7.2.3v25.8l-7.2.3-7.3.3-.3 6.2-.3 6.2-6.2.3-6.2.3-.3 6.7-.3 6.8H659l.7-20.6.6-20.7-13.9.8c-7.6.4-14 .8-14.1.9 0 0-.4 6.1-.8 13.3l-.8 13.3H646v27h42v-12.9l7.3-.3 7.2-.3.3-6.8.3-6.7H716v-55h-14c-10.9 0-14.2.3-14.6 1.4zM631.7 686.7c-.4.3-.7 3.2-.7 6.4v5.8l-6.7.4-6.8.4 7-.1 7-.1.3-6.2.3-6.2 7.2-.4 7.2-.3-7.1-.2c-3.9-.1-7.4.1-7.7.5zM607.3 726.7c2 .2 5.4.2 7.5 0 2-.2.3-.4-3.8-.4s-5.8.2-3.7.4z"/></svg>